<?xml version="1.0" encoding="utf-8"?>
<!-- Generator: Adobe Illustrator 16.0.0, SVG Export Plug-In . SVG Version: 6.00 Build 0)  -->
<svg version="1.2" baseProfile="tiny" id="Layer_1" xmlns="http://www.w3.org/2000/svg" xmlns:xlink="http://www.w3.org/1999/xlink"
	 x="0px" y="0px" width="224px" height="112px" viewBox="0 0 224 112" xml:space="preserve">
<path fill="none" stroke="#000000" stroke-width="2" stroke-miterlimit="10" d="M219,96.5c0,6.627-8.113,12.5-19.656,12.5H23.404
	C11.859,109,2,103.127,2,96.5v-80C2,9.873,11.859,5,23.404,5h175.94C210.887,5,219,9.873,219,16.5V96.5z"/>
<path fill="none" stroke="#000000" stroke-width="2" stroke-miterlimit="10" d="M216,82.5c0,6.627-7.853,13.5-19.679,13.5H32.149
	C20.323,96,9,89.127,9,82.5v-63C9,12.873,20.323,9,32.149,9h164.172C208.147,9,216,12.873,216,19.5V82.5z"/>
<text transform="matrix(1 0 0 1 64.5117 74.0547)" font-family="'ArialMT'" font-size="72">ctrl</text>
<line fill="none" stroke="#000000" stroke-width="2" stroke-miterlimit="10" x1="5.718" y1="102.733" x2="12.199" y2="89.434"/>
<line fill="none" stroke="#000000" stroke-width="2" stroke-miterlimit="10" x1="216.864" y1="102.424" x2="212.108" y2="89.023"/>
</svg>
