<?xml version="1.0" encoding="utf-8"?>
<!-- Generator: Adobe Illustrator 16.0.0, SVG Export Plug-In . SVG Version: 6.00 Build 0)  -->
<svg version="1.2" baseProfile="tiny" id="Layer_1" xmlns="http://www.w3.org/2000/svg" xmlns:xlink="http://www.w3.org/1999/xlink"
	 x="0px" y="0px" width="224px" height="112px" viewBox="0 0 224 112" xml:space="preserve">
<path fill="none" stroke="#000000" stroke-width="2" stroke-miterlimit="10" d="M221,96.5c0,6.627-8.113,12.5-19.656,12.5H25.404
	C13.859,109,4,103.127,4,96.5v-80C4,9.873,13.859,5,25.404,5h175.94C212.887,5,221,9.873,221,16.5V96.5z"/>
<path fill="none" stroke="#000000" stroke-width="2" stroke-miterlimit="10" d="M219,89.27c0,7.237-7.641,14.73-19.609,14.73H33.244
	C21.275,104,10,96.507,10,89.27V20.467C10,13.229,21.275,9,33.244,9h166.147C211.359,9,219,13.229,219,20.467V89.27z"/>
<text transform="matrix(1 0 0 1 66.5117 74.0547)" font-family="'ArialMT'" font-size="72">ctrl</text>
<line fill="none" stroke="#000000" stroke-width="2" stroke-miterlimit="10" x1="6.669" y1="102.482" x2="12.007" y2="94.7"/>
<line fill="none" stroke="#000000" stroke-width="2" stroke-miterlimit="10" x1="219.83" y1="100.592" x2="216.636" y2="96.214"/>
</svg>
