<?xml version="1.0" encoding="utf-8"?>
<!-- Generator: Adobe Illustrator 16.0.0, SVG Export Plug-In . SVG Version: 6.00 Build 0)  -->
<svg version="1.2" baseProfile="tiny" id="Layer_1" xmlns="http://www.w3.org/2000/svg" xmlns:xlink="http://www.w3.org/1999/xlink"
	 x="0px" y="0px" width="112px" height="112px" viewBox="0 0 112 112" xml:space="preserve">
<path fill="none" stroke="#000000" stroke-width="2" stroke-miterlimit="10" d="M109,95.5c0,6.627-4.283,12.5-9.904,12.5H13.422
	C7.801,108,3,102.127,3,95.5v-80C3,8.873,7.801,4,13.422,4h85.673C104.717,4,109,8.873,109,15.5V95.5z"/>
<path fill="none" stroke="#000000" stroke-width="2" stroke-miterlimit="10" d="M108,88.27c0,7.237-4.027,14.73-9.855,14.73H17.24
	C11.412,103,6,95.507,6,88.27V19.467C6,12.229,11.412,8,17.24,8h80.905C103.973,8,108,12.229,108,19.467V88.27z"/>
<line fill="none" stroke="#000000" stroke-width="2" stroke-miterlimit="10" x1="4.3" y1="101.482" x2="6.899" y2="93.7"/>
<line fill="none" stroke="#000000" stroke-width="2" stroke-miterlimit="10" x1="108.098" y1="99.592" x2="106.542" y2="95.214"/>
<text transform="matrix(1 0 0 1 32.9878 76.334)" font-family="'ArialMT'" font-size="72">V</text>
</svg>
