<?xml version="1.0" encoding="utf-8"?>
<!-- Generator: Adobe Illustrator 16.0.0, SVG Export Plug-In . SVG Version: 6.00 Build 0)  -->
<svg version="1.2" baseProfile="tiny" id="Layer_1" xmlns="http://www.w3.org/2000/svg" xmlns:xlink="http://www.w3.org/1999/xlink"
	 x="0px" y="0px" width="112px" height="112px" viewBox="0 0 112 112" xml:space="preserve">
<path fill="none" stroke="#000000" stroke-width="2" stroke-miterlimit="10" d="M110,95.5c0,6.627-4.044,12.5-9.798,12.5H12.503
	C6.749,108,2,102.127,2,95.5v-80C2,8.873,6.749,4,12.503,4h87.699C105.956,4,110,8.873,110,15.5V95.5z"/>
<path fill="none" stroke="#000000" stroke-width="2" stroke-miterlimit="10" d="M109,81.5c0,6.627-4.155,13.5-9.71,13.5H22.178
	C16.624,95,11,88.127,11,81.5v-63C11,11.873,16.624,8,22.178,8H99.29c5.555,0,9.71,3.873,9.71,10.5V81.5z"/>
<line fill="none" stroke="#000000" stroke-width="2" stroke-miterlimit="10" x1="5.945" y1="101.733" x2="11.809" y2="92.373"/>
<line fill="none" stroke="#000000" stroke-width="2" stroke-miterlimit="10" x1="108.936" y1="101.424" x2="106.564" y2="88.023"/>
<text transform="matrix(1 0 0 1 32.9878 78.334)" font-family="'ArialMT'" font-size="72">V</text>
</svg>
